<?xml version="1.0" encoding="utf-8"?>
<!-- Generator: Adobe Illustrator 21.0.0, SVG Export Plug-In . SVG Version: 6.00 Build 0)  -->
<svg version="1.1" id="Layer_1" xmlns="http://www.w3.org/2000/svg" xmlns:xlink="http://www.w3.org/1999/xlink" x="0px" y="0px"
	 viewBox="0 0 262 262" style="enable-background:new 0 0 262 262;" xml:space="preserve">
<style type="text/css">
	.st0{fill:#253A7C;}
	.st1{fill:#1B2E4F;}
	.st2{fill:#2D77BD;}
	.st3{fill:#FFFFFF;}
</style>
<circle class="st0" cx="131" cy="131" r="131"/>
<path class="st1" d="M172.5,255.3l-68.1-68.4l81-108.6l74.4,76.8c0,0-4.2,30.1-26.1,57.3c0,0-24.2,36.2-76.7,47"/>
<path class="st2" d="M184.9,77.8v48.6c0,0,1.7,36.6-24.5,58.5c0,0-13.1,10.4-29.7,17.9c0,0-14.2-4.9-34.8-22.8
	c-18.8-18.2-18.8-47.4-18.8-47.4V77.8c0,0,30.2-6,53.9-18.6C131,59.2,160.4,73.3,184.9,77.8z"/>
<g>
	<g>
		<path class="st3" d="M109.4,155.3c3.3-8.7,11.8-14.9,21.6-14.9c9.9,0,18.3,6.2,21.6,14.9c6.7-6,10.9-14.6,10.9-24.3
			c0-18-14.6-32.5-32.5-32.5c-18,0-32.5,14.6-32.5,32.5C98.5,140.6,102.7,149.3,109.4,155.3z"/>
	</g>
</g>
<circle class="st2" cx="131" cy="128" r="9.4"/>
</svg>
