<?xml version="1.0" encoding="utf-8"?>
<!-- Generator: Adobe Illustrator 21.0.0, SVG Export Plug-In . SVG Version: 6.00 Build 0)  -->
<svg version="1.1" id="Layer_1" xmlns="http://www.w3.org/2000/svg" xmlns:xlink="http://www.w3.org/1999/xlink" x="0px" y="0px"
	 viewBox="0 0 262 262" style="enable-background:new 0 0 262 262;" xml:space="preserve">
<style type="text/css">
	.st0{fill:#253A7C;}
	.st1{fill:#1B2E4F;}
	.st2{fill:#2D77BD;}
	.st3{fill:#FFFFFF;}
	.st4{fill:none;stroke:#2D77BD;stroke-miterlimit:10;}
	.st5{fill:none;stroke:#2D77BD;stroke-linecap:round;stroke-miterlimit:10;}
</style>
<circle class="st0" cx="131" cy="131" r="131"/>
<path class="st1" d="M172.5,255.3l-68.1-68.4l81-108.6l74.4,76.8c0,0-4.2,30.1-26.1,57.3c0,0-24.2,36.2-76.7,47"/>
<path class="st2" d="M184.9,61.1l0,65.2c0,0,1.7,36.6-24.5,58.5c0,0-13.1,10.4-29.7,17.9c0,0-14.2-4.9-34.8-22.8
	c-18.8-18.2-18.8-47.4-18.8-47.4l0-71.4c0,0,30.2,10.7,53.9-2C131,59.2,157.2,72.7,184.9,61.1z"/>
<g>
	<g>
		<circle class="st3" cx="131" cy="131" r="32.5"/>
	</g>
</g>
<circle class="st4" cx="136.5" cy="126.2" r="15.2"/>
<line class="st5" x1="127" y1="138.1" x2="113.1" y2="152.7"/>
</svg>
